<svg width="96" height="48" viewBox="0 0 96 48" fill="none" xmlns="http://www.w3.org/2000/svg">
<path d="M64.0099 22.6474C63.8626 22.5362 63.2008 22.1714 62.2599 21.8337C62.2599 21.8337 64.1165 20.9248 64.4042 19.6529C64.8464 17.6943 67.0656 16.2164 67.7388 15.8105C67.8636 15.7356 67.7228 15.5973 67.614 15.5545C64.9255 14.4391 60.995 15.1124 59.3538 15.8448C56.5997 17.0735 55.5931 19.5783 55.8313 21.4892C55.8516 21.6457 55.7585 21.4846 55.6544 21.2296C55.1217 19.9478 54.1311 18.3632 52.7213 17.5563C52.5605 17.4632 52.2613 17.2525 52.0231 17.3887C51.751 17.5428 51.3385 17.9464 51.5902 18.7169C51.6152 18.794 51.8192 18.989 52.0367 19.0685C52.7509 19.327 54.3714 20.1204 55.3007 22.0583C54.7523 21.6843 53.8544 21.5278 52.5872 21.5278C46.9944 21.5278 44.4863 25.9214 44.4863 29.9064C44.4863 30.489 44.5284 31.042 44.6076 31.5702H67.8569C67.9068 31.1373 67.9339 30.6884 67.9339 30.2213C67.9343 27.4058 66.2452 24.3208 64.0103 22.6474L64.0099 22.6474Z" fill="#FAFDFF"/>
<path d="M70.9999 35.7887C70.9999 42.3285 65.6978 47.6279 59.158 47.6279H42.0245C35.4847 47.6279 30.1826 42.3279 30.1826 35.7887V34.1973H70.9999V35.7887Z" fill="#FAFDFF"/>
<path d="M48.9301 19.3527C48.4541 17.6073 49.1387 15.8847 50.6712 15.0094C51.1358 14.7466 51.6618 14.6082 52.1969 14.6082C53.1219 14.6082 53.8133 15.0229 54.0714 15.1773C54.3909 15.3609 54.6904 15.5628 54.9689 15.7803C55.2409 15.454 55.5561 15.1477 55.8938 14.8532C55.8735 14.8147 55.8553 14.7716 55.8325 14.7398C55.073 13.6312 53.901 14.0577 53.901 14.0577C53.901 14.0577 55.3768 13.0557 54.6944 10.6414C54.1435 8.69885 52.7586 8.71026 52.2258 8.83468C53.3048 8.62395 54.8577 5.51615 51.7655 2.7663C48.4016 -0.228182 44.9112 2.424 44.9112 3.79997C44.9112 2.74814 44.5846 1.95262 43.533 1.62172C42.1842 1.19313 40.8855 1.85956 40.8855 3.1746C40.8855 1.62172 39.6047 0.57911 38.1517 0.801288C35.8066 1.15928 35.5573 2.66689 35.9314 3.80718C35.317 1.98009 32.4666 1.59927 30.4289 3.27447C28.4499 4.9022 28.6813 7.83744 29.2785 8.06674C27.8869 7.42955 25.7977 7.77221 25.189 9.70122C24.5012 11.8841 25.8704 13.4598 26.6998 13.4348C26.1604 13.5279 25.1606 14.9149 26.0074 16.5516C26.7929 18.0727 28.7569 18.2585 29.5945 17.6113C28.4327 18.5327 28.4884 20.4617 29.4576 21.9036C30.3472 23.2275 31.9863 23.6922 33.6283 23.5289C33.6283 23.5289 34.7867 23.2661 35.4564 25.5535C35.4642 25.5489 35.8554 27.6277 36.6092 31.5698H41.8603C41.7958 31.0257 41.7537 30.4705 41.7537 29.9061C41.7537 25.4265 44.2054 20.8988 48.93 19.353L48.9301 19.3527Z" fill="#FAFDFF"/>
</svg>
