<svg width="96" height="48" viewBox="0 0 96 48" fill="none" xmlns="http://www.w3.org/2000/svg">
<path d="M75.9998 27.3151V35.8509C75.9998 36.7936 75.2101 37.5581 74.2353 37.5581H70.7065V34.1436C70.7065 33.2009 69.9172 32.4363 68.9421 32.4363C67.9669 32.4363 67.1776 33.2005 67.1776 34.1436V37.5581L60.1209 37.5577V30.7292C60.1209 29.7865 59.3316 29.0219 58.3565 29.0219C57.3813 29.0219 56.592 29.786 56.592 30.7292V37.5577H49.5349V34.1432C49.5349 33.2005 48.7456 32.4359 47.7704 32.4359C46.7953 32.4359 46.006 33.2001 46.006 34.1432V37.5577H38.9488V30.7292C38.9488 29.7865 38.1596 29.0219 37.1844 29.0219C36.2093 29.0219 35.42 29.786 35.42 30.7292V37.5577H29.8249C28.4629 34.8582 27.6171 32.1529 27.1165 30.0837C26.7695 28.6476 26.5988 27.1333 26.5947 25.6074L74.2356 25.6078C75.2103 25.6078 76 26.3719 76 27.3151H75.9998Z" fill="#FAFDFF"/>
<path d="M33.641 40.9727H65.6025C63.3429 44.0526 60.5321 46.2853 57.3355 47.4753C54.4897 48.5371 51.5743 46.6771 49.5818 46.6771C47.4306 46.6771 44.7279 48.5553 41.8263 47.4749C38.2561 46.1452 35.6081 43.7171 33.6406 40.9727L33.641 40.9727Z" fill="#FAFDFF"/>
<path d="M70.4186 22.194H28.6357C29.5136 16.7448 32.5055 11.8088 37.2658 10.5894C42.0187 9.36647 44.8296 11.7655 47.9767 12.5018C48.03 12.0505 48.1051 11.5766 48.2048 11.0884C46.2775 10.591 44.4975 9.45213 43.2824 7.71713C41.5821 5.28941 41.4377 2.36915 42.5863 0.00138599C45.359 -0.0482313 48.1585 1.23552 49.8588 3.66314C50.3474 4.36096 50.6932 5.10121 50.9308 5.85501C52.1524 4.71741 53.87 3.82501 56.3035 3.43643C57.2823 3.28798 58.175 3.91197 58.3313 4.8424C58.4901 5.77282 57.8403 6.65127 56.8787 6.80563C53.2855 7.3792 52.0503 9.20429 51.565 12.4501C54.6848 11.686 57.2967 9.53535 61.8544 10.5777C66.3255 11.6026 69.5044 16.0055 70.4188 22.1935L70.4186 22.194Z" fill="#FAFDFF"/>
</svg>
