<svg width="96" height="48" viewBox="0 0 96 48" fill="none" xmlns="http://www.w3.org/2000/svg">
<path d="M33.0258 43.0917C33.0523 43.1373 33.0813 43.1813 33.1121 43.2239C33.081 43.1813 33.052 43.1373 33.0258 43.0917ZM62.5756 26.5858C60.1786 27.4009 58.3941 28.5299 56.8827 29.9258C53.3579 29.2573 49.7247 29.4403 46.2851 30.4596C46.4697 29.7203 46.6172 29.0373 46.7405 28.3646C46.779 28.1591 46.7223 27.9471 46.5861 27.7882C46.45 27.6295 46.2491 27.5411 46.0402 27.5476C44.1721 27.6246 42.31 27.2981 40.58 26.5896C38.8499 25.8813 37.293 24.8084 36.0155 23.4437C35.8685 23.2881 35.6575 23.2095 35.4446 23.2308C35.2318 23.2524 35.0408 23.3716 34.9277 23.5533C29.1926 32.7968 32.5738 42.2658 32.9965 43.0466C33.1432 43.317 33.3773 43.5299 33.6607 43.6504C33.828 43.7261 35.448 44.2541 36.9471 44.663C43.9692 46.5899 51.1029 47.977 59.2581 45.377C59.5332 45.5847 59.8246 45.7698 60.1293 45.9309C61.0057 46.3948 61.9751 46.6561 62.9662 46.6952C63.3414 46.7097 63.7064 46.5708 63.9769 46.3104C64.2474 46.0498 64.4002 45.6906 64.3999 45.3151V27.8912C64.3992 27.4464 64.1842 27.0289 63.8226 26.7702C63.4609 26.5114 62.9966 26.443 62.5756 26.586L62.5756 26.5858ZM45.5098 11.6768C44.7547 11.6768 44.0308 11.9768 43.497 12.5107C42.9631 13.0446 42.6634 13.7685 42.6634 14.5233C42.6634 15.2783 42.9631 16.0023 43.497 16.5361C44.0308 17.0699 44.7547 17.3696 45.5098 17.3696C46.2645 17.3696 46.9884 17.0699 47.5223 16.5361C48.0562 16.0022 48.3562 15.2783 48.3562 14.5233C48.3562 13.7685 48.0562 13.0446 47.5223 12.5107C46.9885 11.9768 46.2646 11.6768 45.5098 11.6768ZM56.0332 14.5233C56.0332 17.3143 54.9245 19.991 52.9508 21.9643C50.9774 23.9377 48.3006 25.0464 45.5099 25.0464C42.7189 25.0464 40.0422 23.9377 38.0689 21.9643C36.0955 19.991 34.9867 17.3142 34.9867 14.5233C34.9867 11.7326 36.0955 9.05588 38.0689 7.08242C40.0422 5.10873 42.719 4 45.5099 4C48.2997 4.00339 50.9746 5.11299 52.9474 7.08581C54.9202 9.05864 56.0298 11.7335 56.0332 14.5233V14.5233ZM51.1166 14.5233C51.1166 13.0363 50.5257 11.6102 49.4743 10.5588C48.423 9.50745 46.997 8.91661 45.5099 8.91661C44.0229 8.91661 42.5967 9.50746 41.5453 10.5588C40.4939 11.6102 39.9034 13.0362 39.9034 14.5233C39.9034 16.0102 40.4939 17.4365 41.5453 18.4879C42.5967 19.5393 44.023 20.1298 45.5099 20.1298C46.9963 20.128 48.4214 19.5368 49.4721 18.4857C50.5232 17.4346 51.1147 16.0098 51.1166 14.5232V14.5233Z" fill="#FAFDFF"/>
</svg>
