<svg width="96" height="48" viewBox="0 0 96 48" fill="none" xmlns="http://www.w3.org/2000/svg">
<path fill-rule="evenodd" clip-rule="evenodd" d="M26.5971 25.9708H33.8763L37.6241 17.8217C37.9562 17.0976 38.7481 16.6218 39.4879 16.6577C40.2839 16.6757 40.9958 17.1678 41.2939 17.9058L44.8754 26.7526L47.1213 22.7569C47.471 22.137 48.123 21.7488 48.8349 21.7369C49.5908 21.743 50.159 22.067 50.5328 22.635L52.9067 11.4678C53.1066 10.5281 53.8965 9.84594 54.9145 9.88602C55.8764 9.91009 56.6843 10.6159 56.8363 11.5679L59.14 25.9704H69.4111C70.345 24.2988 71.0589 22.5229 71.503 20.6649C72.1809 17.8274 71.9948 16.0095 71.9149 15.4955C71.1789 7.65604 65.5134 1.97266 58.4225 1.97266C54.3346 1.97266 50.4451 3.8865 47.891 7.12215C45.3814 3.84059 41.6615 1.97266 37.5863 1.97266C30.495 1.97266 24.8298 7.65415 24.0914 15.4955C24.0134 16.0095 23.8273 17.8274 24.5034 20.6649C24.9493 22.5229 25.6632 24.2988 26.5972 25.9704" fill="#FAFDFF"/>
<path fill-rule="evenodd" clip-rule="evenodd" d="M57.4342 29.9721C56.4524 29.9721 55.6144 29.2579 55.4604 28.288L54.5845 22.8125L53.3925 28.4202C53.2225 29.2219 52.5766 29.8399 51.7687 29.9759C50.9528 30.1139 50.1449 29.7401 49.7249 29.0381L48.925 27.712L46.3253 32.3375C45.9711 32.9715 45.3011 33.3575 44.5812 33.3575C44.5395 33.3575 44.4975 33.3575 44.4554 33.3537C43.6873 33.3055 43.0174 32.8217 42.7274 32.1097L39.322 23.6982L36.974 28.8079C36.6461 29.5157 35.938 29.972 35.1561 29.972H29.4746C30.0146 30.5678 30.5786 31.1498 31.1905 31.6978L48.0029 46.6465L64.8218 31.6937C65.4318 31.1479 65.9939 30.5679 66.5339 29.972L57.4342 29.9721Z" fill="#FAFDFF"/>
</svg>
