<svg width="96" height="48" viewBox="0 0 96 48" fill="none" xmlns="http://www.w3.org/2000/svg">
<path d="M49.198 0C37.8279 0 28.5757 9.2514 28.5757 20.6224H25.998V33.5115H33.7309V20.6224C33.7309 12.0925 40.6675 5.15587 49.1974 5.15587C57.7272 5.15587 64.6639 12.0925 64.6639 20.6224V32.1317L50.9948 41.2436H46.6206V46.3993H52.5573L69.8202 34.89V33.5108H72.3978V20.6217H69.8202C69.8202 9.25162 60.5683 0.000441657 49.1978 0.000441657L49.198 0Z" fill="#FAFDFF"/>
<path d="M62.0888 23.1997C62.0888 16.093 56.307 10.3105 49.1997 10.3105C42.093 10.3105 36.3105 16.0924 36.3105 23.1997C36.3105 30.3063 42.0924 36.0888 49.1997 36.0888C56.3063 36.0888 62.0888 30.3065 62.0888 23.1997Z" fill="#FAFDFF"/>
</svg>
