<svg width="96" height="48" viewBox="0 0 96 48" fill="none" xmlns="http://www.w3.org/2000/svg">
<g clip-path="url(#clip0_318_85)">
<path d="M66.7871 -0.0117188C66.2449 -0.0117188 65.7249 0.20362 65.3412 0.586996C64.9578 0.970373 64.7421 1.49036 64.7421 2.03259C64.7418 2.57482 64.9574 3.09518 65.3408 3.47854C65.7246 3.86227 66.2445 4.07761 66.7871 4.07761C67.3294 4.07761 67.8497 3.86227 68.2334 3.47854C68.6168 3.09516 68.8322 2.57482 68.8322 2.03259C68.8322 1.49036 68.6165 0.970354 68.2331 0.586996C67.8494 0.20362 67.3294 -0.0117188 66.7871 -0.0117188H66.7871ZM65.3006 4.84542C63.8243 4.84542 62.6357 5.6683 62.6357 6.68991V10.6168L70.9386 10.6493V6.68958C70.9386 5.66793 69.7501 4.84509 68.2737 4.84509H65.3007L65.3006 4.84542ZM62.5746 10.7722L71 10.793L62.5746 10.7722ZM49.0721 11.4472L49.0718 11.4475C48.5352 11.4475 48.0205 11.6604 47.641 12.0399C47.2615 12.4194 47.0483 12.9341 47.0483 13.4707C47.0486 14.0072 47.2619 14.5216 47.6414 14.9011C48.0209 15.2802 48.5352 15.4931 49.0718 15.4931C49.608 15.4931 50.1223 15.2798 50.5015 14.9007C50.8809 14.5212 51.0938 14.0072 51.0942 13.4707C51.0942 12.9344 50.8813 12.4197 50.5018 12.0403C50.1227 11.6608 49.6083 11.4475 49.0718 11.4475L49.0721 11.4472ZM62.6361 13.6683V47.1828H70.939V13.6683H62.6361ZM47.5819 16.2541C46.1017 16.2541 44.9103 17.0876 44.9103 18.1234V22.104L53.2348 22.1376V18.1234C53.2348 17.0877 52.0433 16.2542 50.5632 16.2542L47.5819 16.2541ZM31.3619 21.3079L31.3616 21.3083C30.8193 21.3079 30.299 21.5233 29.9156 21.9067C29.5319 22.29 29.3166 22.81 29.3162 23.3522C29.3162 23.8948 29.5315 24.4148 29.9153 24.7986C30.2986 25.1819 30.819 25.3976 31.3616 25.3973C31.9038 25.3976 32.4242 25.1819 32.8075 24.7986C33.1913 24.4148 33.4066 23.8948 33.4066 23.3522C33.4063 22.81 33.1909 22.29 32.8072 21.9067C32.4238 21.5233 31.9038 21.3079 31.3616 21.3083L31.3619 21.3079ZM44.9322 25.1667V47.1823H53.2351V25.1667H44.9322ZM29.8753 26.1651C28.399 26.1651 27.2104 26.988 27.2104 28.0096V31.9365L35.5133 31.969V28.0092C35.5133 26.9876 34.3248 26.1647 32.8485 26.1647H29.8754L29.8753 26.1651ZM27.1543 32.0919L35.5698 32.1116L27.1543 32.0919ZM27.2108 34.9989V47.182H35.5137V34.9989H27.2108Z" fill="#FAFDFF"/>
</g>
<defs>
<clipPath id="clip0_318_85">
<rect width="96" height="48" fill="white"/>
</clipPath>
</defs>
</svg>
